<svg xmlns="http://www.w3.org/2000/svg" xmlns:xlink="http://www.w3.org/1999/xlink" width="1268pt" height="1392pt" viewBox="0.00 0.00 1268.00 1391.80">
<g id="graph0" class="graph" transform="scale(1 1) rotate(0) translate(4 1387.8)">
<title>TAVI_Project</title>
<polygon fill="white" stroke="none" points="-4,4 -4,-1387.8 1264,-1387.8 1264,4 -4,4"/>
<g id="clust1" class="cluster">
<title>cluster_0</title>
<polygon fill="lightgrey" stroke="lightgrey" points="8,-1048 8,-1375.8 930,-1375.8 930,-1048 8,-1048"/>
<text text-anchor="middle" x="469" y="-1359.2" font-family="Times,serif" font-size="14.00">TAVI Project Structure</text>
</g>
<g id="clust2" class="cluster">
<title>cluster_frontend</title>
<polygon fill="none" stroke="lightgrey" stroke-dasharray="5,2" points="16,-1142.4 16,-1343 328,-1343 328,-1142.4 16,-1142.4"/>
<text text-anchor="middle" x="172" y="-1326.4" font-family="Times,serif" font-size="14.00">frontend/</text>
<text text-anchor="middle" x="172" y="-1309.6" font-family="Times,serif" font-size="14.00">(Kivy App)</text>
</g>
<g id="clust3" class="cluster">
<title>cluster_1</title>
<polygon fill="lightblue" stroke="lightblue" points="938,-8 938,-1224.8 1164,-1224.8 1164,-8 938,-8"/>
<text text-anchor="middle" x="1051" y="-1208.2" font-family="Times,serif" font-size="14.00">Multimodal Interaction Flow</text>
</g>
<!-- venv -->
<g id="node1" class="node">
<title>venv</title>
<polygon fill="white" stroke="black" points="478.79,-1293.4 337.21,-1293.4 337.21,-1251.8 478.79,-1251.8 478.79,-1293.4"/>
<text text-anchor="middle" x="408" y="-1276.8" font-family="Times,serif" font-size="14.00">venv/</text>
<text text-anchor="middle" x="408" y="-1260" font-family="Times,serif" font-size="14.00">(Virtual Environment)</text>
</g>
<!-- app -->
<g id="node2" class="node">
<title>app</title>
<polygon fill="white" stroke="black" points="617.68,-1293.4 496.32,-1293.4 496.32,-1251.8 617.68,-1251.8 617.68,-1293.4"/>
<text text-anchor="middle" x="557" y="-1276.8" font-family="Times,serif" font-size="14.00">app.py</text>
<text text-anchor="middle" x="557" y="-1260" font-family="Times,serif" font-size="14.00">(FastAPI backend)</text>
</g>
<!-- send_audio -->
<g id="node11" class="node">
<title>send_audio</title>
<polygon fill="lightyellow" stroke="black" points="1068.43,-1019 957.57,-1019 957.57,-977.4 1068.43,-977.4 1068.43,-1019"/>
<text text-anchor="middle" x="1013" y="-1002.4" font-family="Times,serif" font-size="14.00">Send to Backend</text>
<text text-anchor="middle" x="1013" y="-985.6" font-family="Times,serif" font-size="14.00">/ process_audio/</text>
</g>
<!-- app&#45;&gt;send_audio -->
<g id="edge1" class="edge">
<title>app-&gt;send_audio</title>
<path fill="none" stroke="black" stroke-dasharray="1,5" d="M578,-1251.33C619.38,-1211.51 708.87,-1126.04 725.31,-1115.6 795.52,-1070.99 885.68,-1037.85 946.19,-1018.57"/>
<polygon fill="black" stroke="black" points="947.2,-1021.93 955.69,-1015.59 945.1,-1015.25 947.2,-1021.93"/>
<text text-anchor="middle" x="793.15" y="-1119.8" font-family="Times,serif" font-size="14.00">exposes /process_audio/</text>
</g>
<!-- proc -->
<g id="node3" class="node">
<title>proc</title>
<polygon fill="white" stroke="black" points="795.93,-1293.4 636.07,-1293.4 636.07,-1251.8 795.93,-1251.8 795.93,-1293.4"/>
<text text-anchor="middle" x="716" y="-1276.8" font-family="Times,serif" font-size="14.00">processing.py</text>
<text text-anchor="middle" x="716" y="-1260" font-family="Times,serif" font-size="14.00">(Video Processing Logic)</text>
</g>
<!-- frame_extract -->
<g id="node18" class="node">
<title>frame_extract</title>
<polygon fill="lightyellow" stroke="black" points="1135.79,-529.2 1022.21,-529.2 1022.21,-487.6 1135.79,-487.6 1135.79,-529.2"/>
<text text-anchor="middle" x="1079" y="-512.6" font-family="Times,serif" font-size="14.00">Frame Extraction</text>
<text text-anchor="middle" x="1079" y="-495.8" font-family="Times,serif" font-size="14.00">(OpenCV)</text>
</g>
<!-- proc&#45;&gt;frame_extract -->
<g id="edge2" class="edge">
<title>proc-&gt;frame_extract</title>
<path fill="none" stroke="black" d="M795.96,-1253.3C799.01,-1252.76 802.03,-1252.26 805,-1251.8 890.04,-1238.61 1184,-1258.26 1184,-1172.2 1184,-1172.2 1184,-1172.2 1184,-583.2 1184,-560.13 1166.82,-543.64 1146.36,-532.2"/>
<polygon fill="black" stroke="black" points="1147.96,-529.08 1137.46,-527.66 1144.78,-535.32 1147.96,-529.08"/>
</g>
<!-- caption -->
<g id="node19" class="node">
<title>caption</title>
<polygon fill="lightyellow" stroke="black" points="1129.86,-450.6 1006.14,-450.6 1006.14,-409 1129.86,-409 1129.86,-450.6"/>
<text text-anchor="middle" x="1068" y="-434" font-family="Times,serif" font-size="14.00">Image Captioning</text>
<text text-anchor="middle" x="1068" y="-417.2" font-family="Times,serif" font-size="14.00">(BLIP via HF API)</text>
</g>
<!-- proc&#45;&gt;caption -->
<g id="edge3" class="edge">
<title>proc-&gt;caption</title>
<path fill="none" stroke="black" d="M792,-1251.34C853.17,-1232.73 929,-1203.37 929,-1172.2 929,-1172.2 929,-1172.2 929,-507.4 929,-473.34 961.41,-454.31 994.93,-443.74"/>
<polygon fill="black" stroke="black" points="995.73,-447.15 1004.36,-441.02 993.79,-440.43 995.73,-447.15"/>
</g>
<!-- ocr -->
<g id="node20" class="node">
<title>ocr</title>
<polygon fill="lightyellow" stroke="black" points="1117.03,-372 1018.97,-372 1018.97,-330.4 1117.03,-330.4 1117.03,-372"/>
<text text-anchor="middle" x="1068" y="-355.4" font-family="Times,serif" font-size="14.00">OCR</text>
<text text-anchor="middle" x="1068" y="-338.6" font-family="Times,serif" font-size="14.00">(Mistral OCR)</text>
</g>
<!-- proc&#45;&gt;ocr -->
<g id="edge4" class="edge">
<title>proc-&gt;ocr</title>
<path fill="none" stroke="black" d="M796.42,-1253.04C799.31,-1252.59 802.17,-1252.17 805,-1251.8 852.52,-1245.57 1197,-1261.67 1236,-1233.8 1259.9,-1216.72 1260,-1201.58 1260,-1172.2 1260,-1172.2 1260,-1172.2 1260,-428.8 1260,-371.39 1185.02,-355.82 1128.77,-352.21"/>
<polygon fill="black" stroke="black" points="1129.12,-348.73 1118.96,-351.71 1128.76,-355.72 1129.12,-348.73"/>
</g>
<!-- summarization -->
<g id="node21" class="node">
<title>summarization</title>
<polygon fill="lightyellow" stroke="black" points="1135.68,-293.4 986.32,-293.4 986.32,-251.8 1135.68,-251.8 1135.68,-293.4"/>
<text text-anchor="middle" x="1061" y="-276.8" font-family="Times,serif" font-size="14.00">Context Summarization</text>
<text text-anchor="middle" x="1061" y="-260" font-family="Times,serif" font-size="14.00">(ChatGroq LLM)</text>
</g>
<!-- proc&#45;&gt;summarization -->
<g id="edge5" class="edge">
<title>proc-&gt;summarization</title>
<path fill="none" stroke="black" d="M707.49,-1251.44C699.9,-1231.64 690,-1200.38 690,-1172.2 690,-1172.2 690,-1172.2 690,-350.2 690,-292.4 864.92,-277.86 974.54,-274.42"/>
<polygon fill="black" stroke="black" points="974.51,-277.93 984.41,-274.14 974.31,-270.93 974.51,-277.93"/>
</g>
<!-- env -->
<g id="node4" class="node">
<title>env</title>
<polygon fill="white" stroke="black" points="177.19,-1097.6 34.81,-1097.6 34.81,-1056 177.19,-1056 177.19,-1097.6"/>
<text text-anchor="middle" x="106" y="-1081" font-family="Times,serif" font-size="14.00">.env</text>
<text text-anchor="middle" x="106" y="-1064.2" font-family="Times,serif" font-size="14.00">(API Keys &amp; Configs)</text>
</g>
<!-- req -->
<g id="node5" class="node">
<title>req</title>
<polygon fill="white" stroke="black" points="921.68,-1293.4 814.32,-1293.4 814.32,-1251.8 921.68,-1251.8 921.68,-1293.4"/>
<text text-anchor="middle" x="868" y="-1276.8" font-family="Times,serif" font-size="14.00">requirements.txt</text>
<text text-anchor="middle" x="868" y="-1260" font-family="Times,serif" font-size="14.00">(Dependencies)</text>
</g>
<!-- main_py -->
<g id="node6" class="node">
<title>main_py</title>
<polygon fill="white" stroke="black" points="188.06,-1293.4 23.94,-1293.4 23.94,-1251.8 188.06,-1251.8 188.06,-1293.4"/>
<text text-anchor="middle" x="106" y="-1276.8" font-family="Times,serif" font-size="14.00">main.py</text>
<text text-anchor="middle" x="106" y="-1260" font-family="Times,serif" font-size="14.00">(App Logic &amp; Interaction)</text>
</g>
<!-- config_py -->
<g id="node7" class="node">
<title>config_py</title>
<polygon fill="white" stroke="black" points="169.79,-1192 42.21,-1192 42.21,-1150.4 169.79,-1150.4 169.79,-1192"/>
<text text-anchor="middle" x="106" y="-1175.4" font-family="Times,serif" font-size="14.00">config.py</text>
<text text-anchor="middle" x="106" y="-1158.6" font-family="Times,serif" font-size="14.00">(Configs from .env)</text>
</g>
<!-- main_py&#45;&gt;config_py -->
<g id="edge7" class="edge">
<title>main_py-&gt;config_py</title>
<path fill="none" stroke="black" d="M106,-1251.48C106,-1237.74 106,-1219.26 106,-1203.59"/>
<polygon fill="black" stroke="black" points="109.5,-1203.8 106,-1193.8 102.5,-1203.8 109.5,-1203.8"/>
</g>
<!-- mic -->
<g id="node9" class="node">
<title>mic</title>
<polygon fill="lightyellow" stroke="black" points="1098.97,-1192 957.03,-1192 957.03,-1150.4 1098.97,-1150.4 1098.97,-1192"/>
<text text-anchor="middle" x="1028" y="-1175.4" font-family="Times,serif" font-size="14.00">Wake Word Detection</text>
<text text-anchor="middle" x="1028" y="-1158.6" font-family="Times,serif" font-size="14.00">(pvporcupine)</text>
</g>
<!-- main_py&#45;&gt;mic -->
<g id="edge6" class="edge">
<title>main_py-&gt;mic</title>
<path fill="none" stroke="black" d="M188.22,-1252.98C191.18,-1252.55 194.11,-1252.15 197,-1251.8 349.94,-1233.34 739.76,-1267.85 890,-1233.8 922.53,-1226.43 956.78,-1211.19 983.02,-1197.71"/>
<polygon fill="black" stroke="black" points="984.46,-1200.91 991.69,-1193.16 981.21,-1194.71 984.46,-1200.91"/>
</g>
<!-- record_audio -->
<g id="node10" class="node">
<title>record_audio</title>
<polygon fill="lightyellow" stroke="black" points="1060.46,-1097.6 965.54,-1097.6 965.54,-1056 1060.46,-1056 1060.46,-1097.6"/>
<text text-anchor="middle" x="1013" y="-1081" font-family="Times,serif" font-size="14.00">Record Audio</text>
<text text-anchor="middle" x="1013" y="-1064.2" font-family="Times,serif" font-size="14.00">(on trigger)</text>
</g>
<!-- main_py&#45;&gt;record_audio -->
<g id="edge8" class="edge">
<title>main_py-&gt;record_audio</title>
<path fill="none" stroke="black" d="M188.31,-1253.55C191.24,-1252.95 194.15,-1252.37 197,-1251.8 492.85,-1193.2 573.95,-1211.43 865,-1132.4 895.1,-1124.23 927.71,-1112.52 954.64,-1102.04"/>
<polygon fill="black" stroke="black" points="955.61,-1105.42 963.63,-1098.5 953.05,-1098.91 955.61,-1105.42"/>
</g>
<!-- response_display -->
<g id="node23" class="node">
<title>response_display</title>
<polygon fill="lightyellow" stroke="black" points="1136.1,-136.2 1001.9,-136.2 1001.9,-94.6 1136.1,-94.6 1136.1,-136.2"/>
<text text-anchor="middle" x="1069" y="-119.6" font-family="Times,serif" font-size="14.00">Frontend Chat UI</text>
<text text-anchor="middle" x="1069" y="-102.8" font-family="Times,serif" font-size="14.00">(Text, Audio, Video)</text>
</g>
<!-- main_py&#45;&gt;response_display -->
<g id="edge9" class="edge">
<title>main_py-&gt;response_display</title>
<path fill="none" stroke="black" d="M188.22,-1252.98C191.18,-1252.54 194.11,-1252.15 197,-1251.8 353.48,-1232.96 748.49,-1239.31 906,-1233.8 977.5,-1231.3 1222,-1243.74 1222,-1172.2 1222,-1172.2 1222,-1172.2 1222,-193 1222,-155.69 1185.17,-136.55 1147.65,-126.73"/>
<polygon fill="black" stroke="black" points="1148.56,-123.35 1138.03,-124.44 1146.94,-130.16 1148.56,-123.35"/>
</g>
<!-- config_py&#45;&gt;env -->
<g id="edge10" class="edge">
<title>config_py-&gt;env</title>
<path fill="none" stroke="black" d="M106,-1150.15C106,-1138.16 106,-1122.67 106,-1109.1"/>
<polygon fill="black" stroke="black" points="109.5,-1109.32 106,-1099.32 102.5,-1109.32 109.5,-1109.32"/>
</g>
<!-- chat_kv -->
<g id="node8" class="node">
<title>chat_kv</title>
<polygon fill="white" stroke="black" points="319.6,-1293.4 206.4,-1293.4 206.4,-1251.8 319.6,-1251.8 319.6,-1293.4"/>
<text text-anchor="middle" x="263" y="-1276.8" font-family="Times,serif" font-size="14.00">chat.kv</text>
<text text-anchor="middle" x="263" y="-1260" font-family="Times,serif" font-size="14.00">(Chat UI Layout)</text>
</g>
<!-- mic&#45;&gt;record_audio -->
<g id="edge11" class="edge">
<title>mic-&gt;record_audio</title>
<path fill="none" stroke="black" d="M1024.75,-1150.15C1022.8,-1138.16 1020.28,-1122.67 1018.08,-1109.1"/>
<polygon fill="black" stroke="black" points="1021.55,-1108.61 1016.49,-1099.3 1014.64,-1109.74 1021.55,-1108.61"/>
</g>
<!-- record_audio&#45;&gt;send_audio -->
<g id="edge12" class="edge">
<title>record_audio-&gt;send_audio</title>
<path fill="none" stroke="black" d="M1013,-1055.67C1013,-1048.08 1013,-1039.25 1013,-1030.86"/>
<polygon fill="black" stroke="black" points="1016.5,-1030.97 1013,-1020.97 1009.5,-1030.97 1016.5,-1030.97"/>
</g>
<!-- whisper -->
<g id="node12" class="node">
<title>whisper</title>
<polygon fill="lightyellow" stroke="black" points="1074.81,-940.4 963.19,-940.4 963.19,-898.8 1074.81,-898.8 1074.81,-940.4"/>
<text text-anchor="middle" x="1019" y="-923.8" font-family="Times,serif" font-size="14.00">Whisper API</text>
<text text-anchor="middle" x="1019" y="-907" font-family="Times,serif" font-size="14.00">(Speech-to-Text)</text>
</g>
<!-- send_audio&#45;&gt;whisper -->
<g id="edge13" class="edge">
<title>send_audio-&gt;whisper</title>
<path fill="none" stroke="black" d="M1014.58,-977.07C1015.17,-969.48 1015.86,-960.65 1016.52,-952.26"/>
<polygon fill="black" stroke="black" points="1020,-952.61 1017.3,-942.37 1013.02,-952.06 1020,-952.61"/>
</g>
<!-- intent_model -->
<g id="node13" class="node">
<title>intent_model</title>
<polygon fill="lightyellow" stroke="black" points="1086.96,-861.8 957.04,-861.8 957.04,-820.2 1086.96,-820.2 1086.96,-861.8"/>
<text text-anchor="middle" x="1022" y="-845.2" font-family="Times,serif" font-size="14.00">GPT Model</text>
<text text-anchor="middle" x="1022" y="-828.4" font-family="Times,serif" font-size="14.00">(Intent Recognition)</text>
</g>
<!-- whisper&#45;&gt;intent_model -->
<g id="edge14" class="edge">
<title>whisper-&gt;intent_model</title>
<path fill="none" stroke="black" d="M1019.79,-898.47C1020.09,-890.88 1020.43,-882.05 1020.76,-873.66"/>
<polygon fill="black" stroke="black" points="1024.25,-873.9 1021.15,-863.77 1017.26,-873.63 1024.25,-873.9"/>
</g>
<!-- decision -->
<g id="node14" class="node">
<title>decision</title>
<polygon fill="lightyellow" stroke="black" points="1086.57,-783.2 957.43,-783.2 957.43,-747.2 1086.57,-747.2 1086.57,-783.2"/>
<text text-anchor="middle" x="1022" y="-761" font-family="Times,serif" font-size="14.00">Intent Classification</text>
</g>
<!-- intent_model&#45;&gt;decision -->
<g id="edge15" class="edge">
<title>intent_model-&gt;decision</title>
<path fill="none" stroke="black" d="M1022,-819.83C1022,-812.06 1022,-803.03 1022,-794.62"/>
<polygon fill="black" stroke="black" points="1025.5,-794.85 1022,-784.85 1018.5,-794.85 1025.5,-794.85"/>
</g>
<!-- record_intent -->
<g id="node15" class="node">
<title>record_intent</title>
<polygon fill="lightyellow" stroke="black" points="1136.24,-710.2 1039.76,-710.2 1039.76,-674.2 1136.24,-674.2 1136.24,-710.2"/>
<text text-anchor="middle" x="1088" y="-688" font-family="Times,serif" font-size="14.00">Intent: Record</text>
</g>
<!-- decision&#45;&gt;record_intent -->
<g id="edge16" class="edge">
<title>decision-&gt;record_intent</title>
<path fill="none" stroke="black" d="M1037.98,-747.01C1045.92,-738.47 1055.68,-727.97 1064.46,-718.52"/>
<polygon fill="black" stroke="black" points="1066.89,-721.04 1071.14,-711.34 1061.77,-716.28 1066.89,-721.04"/>
</g>
<!-- other_intent -->
<g id="node16" class="node">
<title>other_intent</title>
<polygon fill="lightyellow" stroke="black" points="1142,-656.2 946,-656.2 946,-620.2 1142,-620.2 1142,-656.2"/>
<text text-anchor="middle" x="1044" y="-634" font-family="Times,serif" font-size="14.00">Intent: General / Fallback / Tavi</text>
</g>
<!-- decision&#45;&gt;other_intent -->
<g id="edge17" class="edge">
<title>decision-&gt;other_intent</title>
<path fill="none" stroke="black" d="M1022.43,-746.73C1023.18,-728.44 1025.26,-698.98 1031,-674.2 1031.54,-671.88 1032.19,-669.51 1032.91,-667.14"/>
<polygon fill="black" stroke="black" points="1036.18,-668.4 1036.13,-657.81 1029.56,-666.12 1036.18,-668.4"/>
</g>
<!-- capture_video -->
<g id="node17" class="node">
<title>capture_video</title>
<polygon fill="lightyellow" stroke="black" points="1132.02,-602.2 1033.98,-602.2 1033.98,-566.2 1132.02,-566.2 1132.02,-602.2"/>
<text text-anchor="middle" x="1083" y="-580" font-family="Times,serif" font-size="14.00">Capture Video</text>
</g>
<!-- record_intent&#45;&gt;capture_video -->
<g id="edge18" class="edge">
<title>record_intent-&gt;capture_video</title>
<path fill="none" stroke="black" d="M1126.6,-673.82C1133.18,-669.07 1139.13,-663.24 1143,-656.2 1150.7,-642.17 1150.97,-634.07 1143,-620.2 1140.77,-616.31 1137.92,-612.81 1134.67,-609.68"/>
<polygon fill="black" stroke="black" points="1137.09,-607.13 1127.12,-603.55 1132.68,-612.57 1137.09,-607.13"/>
</g>
<!-- audio_feedback -->
<g id="node22" class="node">
<title>audio_feedback</title>
<polygon fill="lightyellow" stroke="black" points="1112.15,-214.8 1009.85,-214.8 1009.85,-173.2 1112.15,-173.2 1112.15,-214.8"/>
<text text-anchor="middle" x="1061" y="-198.2" font-family="Times,serif" font-size="14.00">Text-to-Speech</text>
<text text-anchor="middle" x="1061" y="-181.4" font-family="Times,serif" font-size="14.00">(pyttsx3)</text>
</g>
<!-- other_intent&#45;&gt;audio_feedback -->
<g id="edge24" class="edge">
<title>other_intent-&gt;audio_feedback</title>
<path fill="none" stroke="black" d="M1015.33,-619.82C993.44,-604.14 967,-578.85 967,-548.2 967,-548.2 967,-548.2 967,-271.6 967,-249.91 982.23,-233.27 1000.43,-221.13"/>
<polygon fill="black" stroke="black" points="1002.15,-224.18 1008.86,-215.98 998.5,-218.2 1002.15,-224.18"/>
</g>
<!-- capture_video&#45;&gt;frame_extract -->
<g id="edge19" class="edge">
<title>capture_video-&gt;frame_extract</title>
<path fill="none" stroke="black" d="M1082.05,-565.71C1081.65,-558.35 1081.18,-549.55 1080.72,-541.12"/>
<polygon fill="black" stroke="black" points="1084.21,-540.95 1080.18,-531.15 1077.23,-541.32 1084.21,-540.95"/>
</g>
<!-- frame_extract&#45;&gt;caption -->
<g id="edge20" class="edge">
<title>frame_extract-&gt;caption</title>
<path fill="none" stroke="black" d="M1076.11,-487.27C1075.01,-479.59 1073.72,-470.65 1072.5,-462.17"/>
<polygon fill="black" stroke="black" points="1076.01,-461.96 1071.12,-452.56 1069.08,-462.95 1076.01,-461.96"/>
</g>
<!-- caption&#45;&gt;ocr -->
<g id="edge21" class="edge">
<title>caption-&gt;ocr</title>
<path fill="none" stroke="black" d="M1068,-408.67C1068,-401.08 1068,-392.25 1068,-383.86"/>
<polygon fill="black" stroke="black" points="1071.5,-383.97 1068,-373.97 1064.5,-383.97 1071.5,-383.97"/>
</g>
<!-- ocr&#45;&gt;summarization -->
<g id="edge22" class="edge">
<title>ocr-&gt;summarization</title>
<path fill="none" stroke="black" d="M1066.16,-330.07C1065.47,-322.48 1064.66,-313.65 1063.89,-305.26"/>
<polygon fill="black" stroke="black" points="1067.38,-305 1062.99,-295.36 1060.41,-305.64 1067.38,-305"/>
</g>
<!-- summarization&#45;&gt;audio_feedback -->
<g id="edge23" class="edge">
<title>summarization-&gt;audio_feedback</title>
<path fill="none" stroke="black" d="M1061,-251.47C1061,-243.88 1061,-235.05 1061,-226.66"/>
<polygon fill="black" stroke="black" points="1064.5,-226.77 1061,-216.77 1057.5,-226.77 1064.5,-226.77"/>
</g>
<!-- audio_feedback&#45;&gt;response_display -->
<g id="edge25" class="edge">
<title>audio_feedback-&gt;response_display</title>
<path fill="none" stroke="black" d="M1063.1,-172.87C1063.89,-165.28 1064.82,-156.45 1065.69,-148.06"/>
<polygon fill="black" stroke="black" points="1069.17,-148.47 1066.73,-138.16 1062.21,-147.74 1069.17,-148.47"/>
</g>
<!-- continuous_loop -->
<g id="node24" class="node">
<title>continuous_loop</title>
<polygon fill="lightyellow" stroke="black" points="1138.9,-57.6 1033.1,-57.6 1033.1,-16 1138.9,-16 1138.9,-57.6"/>
<text text-anchor="middle" x="1086" y="-41" font-family="Times,serif" font-size="14.00">Re-activate Mic</text>
<text text-anchor="middle" x="1086" y="-24.2" font-family="Times,serif" font-size="14.00">(Loop back)</text>
</g>
<!-- response_display&#45;&gt;continuous_loop -->
<g id="edge26" class="edge">
<title>response_display-&gt;continuous_loop</title>
<path fill="none" stroke="black" d="M1073.47,-94.27C1075.17,-86.59 1077.16,-77.65 1079.04,-69.17"/>
<polygon fill="black" stroke="black" points="1082.43,-70.06 1081.18,-59.53 1075.59,-68.54 1082.43,-70.06"/>
</g>
<!-- continuous_loop&#45;&gt;mic -->
<g id="edge27" class="edge">
<title>continuous_loop-&gt;mic</title>
<path fill="none" stroke="black" d="M1119.29,-57.98C1136.93,-71.44 1155,-90.95 1155,-114.4 1155,-1077.8 1155,-1077.8 1155,-1077.8 1155,-1108.76 1130.01,-1130.44 1102.2,-1144.97"/>
<polygon fill="black" stroke="black" points="1100.69,-1141.82 1093.23,-1149.34 1103.76,-1148.11 1100.69,-1141.82"/>
</g>
</g>
</svg>